#!OML:ASF E:\Style4\Style4.ASF
:FULLY-SPECIFIED
:DEGREES
1628
root 0.65071 17.0166 -1.69847 -3.31522 -13.0649 5.57321
lowerback 12.8615 0.814633 -1.03571
upperback 12.9881 0.833314 1.28133
thorax 6.56714 0.226266 1.87188
lowerneck 5.45288 -1.10429 -5.58826
upperneck -5.00521 -2.35458 -6.74192
head -2.56497 -0.850418 -1.11486
rclavicle 7.95139e-016 -2.38542e-015
rhumerus 24.6724 19.3994 -94.5456
rradius 70.7789
rwrist -46.3224
rhand -22.5088 16.5306
rfingers 7.12502
rthumb 3.91748 -13.4131
lclavicle 7.95139e-016 -2.38542e-015
lhumerus 31.4961 -8.18548 48.7933
lradius 76.1083
lwrist -7.44269
lhand -8.04497 31.4352
lfingers 7.12502
lthumb 17.8656 60.6346
rfemur -25.6168 4.40568 11.0798
rtibia 50.4138
rfoot -21.3002 -9.86164
rtoes -16.2684
lfemur -19.1851 8.99287 -26.826
ltibia 46.6381
lfoot -26.0739 12.3999
ltoes -14.1893
1629
root 0.651291 17.0135 -1.70351 -3.31038 -13.2937 5.09421
lowerback 12.9623 0.727818 -0.868385
upperback 13.017 0.727844 1.25539
thorax 6.55091 0.186134 1.75724
lowerneck 5.47904 -0.929511 -5.52041
upperneck -5.02209 -2.11046 -6.61946
head -2.5722 -0.733076 -1.09602
rclavicle -4.37326e-015 3.10104e-014
rhumerus 24.4874 19.368 -94.6515
rradius 71.3041
rwrist -46.9916
rhand -22.6493 16.685
rfingers 7.12502
rthumb 3.78178 -13.2612
lclavicle -4.37326e-015 3.10104e-014
lhumerus 31.8446 -8.34384 49.7386
lradius 76.1257
lwrist -6.8668
lhand -7.90617 31.7029
lfingers 7.12502
lthumb 17.9991 60.8901
rfemur -25.5145 4.56353 11.6506
rtibia 50.3006
rfoot -21.2274 -9.82929
rtoes -16.3183
lfemur -19.2013 9.15088 -26.2622
ltibia 46.8638
lfoot -26.218 12.2973
ltoes -13.7265
1630
root 0.654937 17.0115 -1.71052 -3.32145 -13.4693 4.42424
lowerback 13.1425 0.598521 -0.489687
upperback 13.0595 0.579574 1.29897
thorax 6.50888 0.137727 1.60068
lowerneck 5.53267 -0.734218 -5.56122
upperneck -5.06989 -1.85058 -6.47053
head -2.59359 -0.604768 -1.05088
rclavicle -7.95139e-015 2.38542e-015
rhumerus 24.3663 19.3467 -94.6255
rradius 71.8396
rwrist -47.6098
rhand -22.9101 16.7959
rfingers 7.12502
rthumb 3.52992 -13.1546
lclavicle -7.95139e-015 2.38542e-015
lhumerus 32.2027 -8.51533 50.8082
lradius 76.0986
lwrist -6.29131
lhand -8.0075 31.9731
lfingers 7.12502
lthumb 17.9016 61.1692
rfemur -25.3147 4.69035 12.4272
rtibia 50.1879
rfoot -21.1687 -9.7795
rtoes -16.3079
lfemur -19.1487 9.30382 -25.4883
ltibia 47.0696
lfoot -26.2023 12.1919
ltoes -13.2532
1631
root 0.649624 17.0101 -1.71614 -3.3084 -13.58 4.36433
lowerback 13.1342 0.582777 -0.746837
upperback 13.0915 0.540865 1.20246
thorax 6.5499 0.101238 1.64555
lowerneck 5.42178 -0.605068 -5.58447
upperneck -5.02028 -1.6525 -6.26392
head -2.55157 -0.516648 -0.987265
rclavicle -5.56597e-015 -4.77083e-015
rhumerus 24.3017 19.123 -94.5161
rradius 72.5033
rwrist -48.2374
rhand -23.2831 16.6578
rfingers 7.12502
rthumb 3.16968 -13.2984
lclavicle -5.56597e-015 -4.77083e-015
lhumerus 32.7145 -8.92814 51.7983
lradius 76.0883
lwrist -5.40713
lhand -8.95974 32.0653
lfingers 7.12502
lthumb 16.9852 61.3427
rfemur -25.3488 4.71741 12.52
rtibia 50.1095
rfoot -21.0751 -9.76693
rtoes -16.7062
lfemur -19.2261 9.39028 -25.392
ltibia 47.2106
lfoot -26.2491 12.1762
ltoes -13.0835
